<?xml version="1.0" encoding="UTF-8"?>
<svg width="453px" height="536px" viewBox="0 0 453 536" version="1.1" xmlns="http://www.w3.org/2000/svg" xmlns:xlink="http://www.w3.org/1999/xlink">
    <!-- Generator: Sketch 46.2 (44496) - http://www.bohemiancoding.com/sketch -->
    <title>agrios-logo</title>
    <desc>Created with Sketch.</desc>
    <defs></defs>
    <g id="Page-1" stroke="none" stroke-width="1" fill="none" fill-rule="evenodd">
        <g id="Artboard" transform="translate(-334.000000, -183.000000)">
            <g id="agrios-logo" transform="translate(335.000000, 183.000000)">
                <g id="agrios" transform="translate(71.000000, 0.000000)">
                    <polygon id="Rectangle" fill-opacity="0.793817935" fill="#2988BF" transform="translate(218.500000, 228.000000) rotate(30.000000) translate(-218.500000, -228.000000) " points="135 216.20713 297.213798 216 302 224.208778 292.82105 240 135 239.498612"></polygon>
                    <polygon id="Rectangle" fill-opacity="0.793817935" fill="#2988BF" transform="translate(156.000000, 111.000000) rotate(90.000000) translate(-156.000000, -111.000000) " points="72 113.285289 80.131555 99 240 99 240 123 77.5416135 123"></polygon>
                    <polygon id="Rectangle" fill-opacity="0.793817935" fill="#2988BF" transform="translate(95.500000, 223.000000) rotate(150.000000) translate(-95.500000, -223.000000) " points="13 211 169.426656 211 178 226.143 172.971459 235 13 234.829434"></polygon>
                    <g id="a-side" transform="translate(59.000000, 51.000000)">
                        <circle id="Oval" fill="#45ACC8" cx="83.5" cy="83.5" r="83.5"></circle>
                        <path d="M38.3481481,92.0591945 C38.3481481,110.745219 50.7158001,125.316645 60.2826027,125.316645 C69.8494053,125.316645 85.4298077,125.316645 96.1325159,125.316645 C106.835224,125.316645 118.685489,115.847997 118.685489,105.497476 C118.685489,95.146955 123.60102,89.4993493 125.982075,78.8383612 C128.363129,68.1773731 121.574843,64.6752536 112.010399,64.6752536 L81.2802494,64.6752536 L89.7576678,49.6967162 C92.4723846,44.3687846 95.1823893,33.0528903 85.6756872,27.2723998 C78.8943452,23.1490475 72.0163339,39.0151914 68.7848163,44.360182 C65.5532986,49.7051725 59.0195927,57.022899 54.7624457,60.0502572 C49.5497682,63.7571159 38.3481481,73.3731702 38.3481481,92.0591945 Z" id="Combined-Shape" fill="#FFFFFF"></path>
                    </g>
                    <g id="b-side" transform="translate(104.000000, 143.000000)">
                        <circle id="Oval" fill="#C8457B" transform="translate(83.500000, 83.500000) scale(-1, 1) translate(-83.500000, -83.500000) " cx="83.5" cy="83.5" r="83.5"></circle>
                        <path d="M38.3481481,92.0591945 C38.3481481,110.745219 50.7158001,125.316645 60.2826027,125.316645 C69.8494053,125.316645 85.4298077,125.316645 96.1325159,125.316645 C106.835224,125.316645 118.685489,115.847997 118.685489,105.497476 C118.685489,95.146955 123.60102,89.4993493 125.982075,78.8383612 C128.363129,68.1773731 121.574843,64.6752536 112.010399,64.6752536 L81.2802494,64.6752536 L89.7576678,49.6967162 C92.4723846,44.3687846 95.1823893,33.0528903 85.6756872,27.2723998 C78.8943452,23.1490475 72.0163339,39.0151914 68.7848163,44.360182 C65.5532986,49.7051725 59.0195927,57.022899 54.7624457,60.0502572 C49.5497682,63.7571159 38.3481481,73.3731702 38.3481481,92.0591945 Z" id="Combined-Shape" fill="#FFFFFF" transform="translate(82.404494, 75.956471) scale(-1, 1) translate(-82.404494, -75.956471) "></path>
                    </g>
                    <path d="M291.332061,114.250469 L169.731748,184.205011 L169.731748,334.803072 L291.332061,264.597099 L291.332061,114.250469 Z M314.485531,278.462746 L161.876086,366.632916 L161.728925,367.045658 L0.724912567,273.370557 L0.0271193,273.499224 L0.0271193,272.964568 L0.00555609143,272.952022 L0.0271193,272.914674 L0.0271193,87.8675666 L0.409706898,87.8448616 L153.231429,0.0701180098 L153.257403,0 L315,92.9659264 L314.787959,93.3318769 L314.787959,278.588042 L314.485531,278.462746 Z M274.753441,96.8003212 L153.480366,27.0340335 L40.7117915,91.9078298 L161.884726,161.731727 L274.753441,96.8003212 Z M146.27585,330.413676 L146.27585,179.747607 L23.3990137,109.058704 L23.3990137,259.470702 L146.27585,330.413676 Z" id="Combined-Shape" fill-opacity="0.793817935" fill="#2988BF"></path>
                </g>
                <path d="M86.976,507 L78.048,485.688 L28.8,485.688 L19.872,507 L-0.144,507 L44.064,406.2 L64.08,406.2 L107.712,507 L86.976,507 Z M35.712,469.128 L71.136,469.128 L53.568,426.792 L35.712,469.128 Z M186.048,429.96 L186.048,499.656 C186.048,506.952036 184.392017,513.311973 181.08,518.736 C177.767983,524.160027 173.06403,528.335985 166.968,531.264 C160.87197,534.192015 153.79204,535.656 145.728,535.656 C134.015941,535.656 123.16805,532.248034 113.184,525.432 L120.672,511.896 C127.968036,517.272027 135.983956,519.96 144.72,519.96 C151.632035,519.96 157.12798,518.184018 161.208,514.632 C165.28802,511.079982 167.328,506.232031 167.328,500.088 L167.328,491.016 C164.735987,494.95202 161.376021,497.95199 157.248,500.016 C153.119979,502.08001 148.320027,503.112 142.848,503.112 C136.127966,503.112 130.176026,501.552016 124.992,498.432 C119.807974,495.311984 115.776014,490.944028 112.896,485.328 C110.015986,479.711972 108.576,473.256036 108.576,465.96 C108.576,458.759964 110.015986,452.400028 112.896,446.88 C115.776014,441.359972 119.807974,437.064015 124.992,433.992 C130.176026,430.919985 136.127966,429.384 142.848,429.384 C148.224027,429.384 152.999979,430.439989 157.176,432.552 C161.352021,434.664011 164.735987,437.639981 167.328,441.48 L167.328,429.96 L186.048,429.96 Z M161.64,482.304 C165.432019,478.22398 167.328,472.920033 167.328,466.392 C167.328,459.863967 165.432019,454.56002 161.64,450.48 C157.847981,446.39998 152.92803,444.36 146.88,444.36 C140.83197,444.36 135.912019,446.423979 132.12,450.552 C128.327981,454.680021 126.384,459.959968 126.288,466.392 C126.384,472.920033 128.327981,478.22398 132.12,482.304 C135.912019,486.38402 140.83197,488.424 146.88,488.424 C152.92803,488.424 157.847981,486.38402 161.64,482.304 Z M237.384,433.344 C241.848022,430.703987 247.05597,429.336 253.008,429.24 L253.008,447.384 C245.03996,446.903998 238.680024,448.751979 233.928,452.928 C229.175976,457.104021 226.8,462.743964 226.8,469.848 L226.8,507 L208.08,507 L208.08,429.96 L226.8,429.96 L226.8,444.792 C229.392013,439.799975 232.919978,435.984013 237.384,433.344 Z M266.112,429.96 L284.832,429.96 L284.832,507 L266.112,507 L266.112,429.96 Z M282.96,400.008 C284.97601,402.120011 285.984,404.807984 285.984,408.072 C285.984,411.240016 284.97601,413.879989 282.96,415.992 C280.94399,418.104011 278.400015,419.16 275.328,419.16 C272.255985,419.16 269.71201,418.104011 267.696,415.992 C265.67999,413.879989 264.672,411.240016 264.672,408.072 C264.672,404.807984 265.67999,402.120011 267.696,400.008 C269.71201,397.895989 272.255985,396.84 275.328,396.84 C278.400015,396.84 280.94399,397.895989 282.96,400.008 Z M362.808,434.28 C368.90403,437.544016 373.655983,442.12797 377.064,448.032 C380.472017,453.93603 382.176,460.727962 382.176,468.408 C382.176,476.184039 380.472017,483.04797 377.064,489 C373.655983,494.95203 368.90403,499.559984 362.808,502.824 C356.71197,506.088016 349.68004,507.72 341.712,507.72 C333.64796,507.72 326.544031,506.088016 320.4,502.824 C314.255969,499.559984 309.480017,494.95203 306.072,489 C302.663983,483.04797 300.96,476.184039 300.96,468.408 C300.96,460.727962 302.663983,453.93603 306.072,448.032 C309.480017,442.12797 314.255969,437.544016 320.4,434.28 C326.544031,431.015984 333.64796,429.384 341.712,429.384 C349.68004,429.384 356.71197,431.015984 362.808,434.28 Z M325.872,451.848 C321.83998,456.168022 319.824,461.783965 319.824,468.696 C319.824,475.608035 321.83998,481.223978 325.872,485.544 C329.90402,489.864022 335.183967,492.024 341.712,492.024 C348.048032,492.024 353.23198,489.864022 357.264,485.544 C361.29602,481.223978 363.312,475.608035 363.312,468.696 C363.312,461.783965 361.29602,456.168022 357.264,451.848 C353.23198,447.527978 348.048032,445.368 341.712,445.368 C335.183967,445.368 329.90402,447.527978 325.872,451.848 Z M432.504,445.656 C428.51998,444.407994 424.848017,443.784 421.488,443.784 C418.319984,443.784 415.800009,444.335994 413.928,445.44 C412.055991,446.544006 411.12,448.247988 411.12,450.552 C411.12,452.952012 412.295988,454.799994 414.648,456.096 C417.000012,457.392006 420.719975,458.759993 425.808,460.2 C431.184027,461.832008 435.599983,463.439992 439.056,465.024 C442.512017,466.608008 445.511987,468.959984 448.056,472.08 C450.600013,475.200016 451.872,479.303975 451.872,484.392 C451.872,491.880037 448.992029,497.63998 443.232,501.672 C437.471971,505.70402 430.224044,507.72 421.488,507.72 C415.53597,507.72 409.728028,506.784009 404.064,504.912 C398.399972,503.039991 393.60002,500.376017 389.664,496.92 L396.144,483.816 C399.600017,486.792015 403.727976,489.119992 408.528,490.8 C413.328024,492.480008 417.887978,493.32 422.208,493.32 C425.664017,493.32 428.42399,492.720006 430.488,491.52 C432.55201,490.319994 433.584,488.520012 433.584,486.12 C433.584,483.431987 432.384012,481.416007 429.984,480.072 C427.583988,478.727993 423.696027,477.240008 418.32,475.608 C413.135974,474.071992 408.912016,472.560007 405.648,471.072 C402.383984,469.583993 399.552012,467.328015 397.152,464.304 C394.751988,461.279985 393.552,457.320024 393.552,452.424 C393.552,444.839962 396.311972,439.05602 401.832,435.072 C407.352028,431.08798 414.287958,429.096 422.64,429.096 C427.728025,429.096 432.743975,429.815993 437.688,431.256 C442.632025,432.696007 447.023981,434.711987 450.864,437.304 L444.096,450.84 C440.351981,448.631989 436.48802,446.904006 432.504,445.656 Z" id="Agrios" fill="#202020"></path>
            </g>
        </g>
    </g>
</svg>