<?xml version="1.0" encoding="UTF-8"?>
<svg width="453px" height="536px" viewBox="0 0 453 536" version="1.1" xmlns="http://www.w3.org/2000/svg" xmlns:xlink="http://www.w3.org/1999/xlink">
    <!-- Generator: Sketch 46.2 (44496) - http://www.bohemiancoding.com/sketch -->
    <title>agrios-logo</title>
    <desc>Created with Sketch.</desc>
    <defs></defs>
    <g id="Page-1" stroke="none" stroke-width="1" fill="none" fill-rule="evenodd">
        <g id="Artboard" transform="translate(-334.000000, -183.000000)">
            <g id="agrios-logo" transform="translate(335.000000, 183.000000)">
                <g id="agrios" transform="translate(71.000000, 0.000000)">
                    <polygon id="Rectangle" fill-opacity="0.793817935" fill="#2988BF" transform="translate(218.500000, 228.000000) rotate(30.000000) translate(-218.500000, -228.000000) " points="135 216.20713 297.213798 216 302 224.208778 292.82105 240 135 239.498612"></polygon>
                    <polygon id="Rectangle" fill-opacity="0.793817935" fill="#2988BF" transform="translate(156.000000, 111.000000) rotate(90.000000) translate(-156.000000, -111.000000) " points="72 113.285289 80.131555 99 240 99 240 123 77.5416135 123"></polygon>
                    <polygon id="Rectangle" fill-opacity="0.793817935" fill="#2988BF" transform="translate(95.500000, 223.000000) rotate(150.000000) translate(-95.500000, -223.000000) " points="13 211 169.426656 211 178 226.143 172.971459 235 13 234.829434"></polygon>
                    <g id="a-side" transform="translate(59.000000, 51.000000)">
                        <circle id="Oval" fill="#45ACC8" cx="83.5" cy="83.5" r="83.5"></circle>
                        <path d="M38.3481481,92.0591945 C38.3481481,110.745219 50.7158001,125.316645 60.2826027,125.316645 C69.8494053,125.316645 85.4298077,125.316645 96.1325159,125.316645 C106.835224,125.316645 118.685489,115.847997 118.685489,105.497476 C118.685489,95.146955 123.60102,89.4993493 125.982075,78.8383612 C128.363129,68.1773731 121.574843,64.6752536 112.010399,64.6752536 L81.2802494,64.6752536 L89.7576678,49.6967162 C92.4723846,44.3687846 95.1823893,33.0528903 85.6756872,27.2723998 C78.8943452,23.1490475 72.0163339,39.0151914 68.7848163,44.360182 C65.5532986,49.7051725 59.0195927,57.022899 54.7624457,60.0502572 C49.5497682,63.7571159 38.3481481,73.3731702 38.3481481,92.0591945 Z" id="Combined-Shape" fill="#FFFFFF"></path>
                    </g>
                    <g id="b-side" transform="translate(104.000000, 143.000000)">
                        <circle id="Oval" fill="#C8457B" transform="translate(83.500000, 83.500000) scale(-1, 1) translate(-83.500000, -83.500000) " cx="83.5" cy="83.5" r="83.5"></circle>
                        <path d="M38.3481481,92.0591945 C38.3481481,110.745219 50.7158001,125.316645 60.2826027,125.316645 C69.8494053,125.316645 85.4298077,125.316645 96.1325159,125.316645 C106.835224,125.316645 118.685489,115.847997 118.685489,105.497476 C118.685489,95.146955 123.60102,89.4993493 125.982075,78.8383612 C128.363129,68.1773731 121.574843,64.6752536 112.010399,64.6752536 L81.2802494,64.6752536 L89.7576678,49.6967162 C92.4723846,44.3687846 95.1823893,33.0528903 85.6756872,27.2723998 C78.8943452,23.1490475 72.0163339,39.0151914 68.7848163,44.360182 C65.5532986,49.7051725 59.0195927,57.022899 54.7624457,60.0502572 C49.5497682,63.7571159 38.3481481,73.3731702 38.3481481,92.0591945 Z" id="Combined-Shape" fill="#FFFFFF" transform="translate(82.404494, 75.956471) scale(-1, 1) translate(-82.404494, -75.956471) "></path>
                    </g>
                    <path d="M291.332061,114.250469 L169.731748,184.205011 L169.731748,334.803072 L291.332061,264.597099 L291.332061,114.250469 Z M314.485531,278.462746 L161.876086,366.632916 L161.728925,367.045658 L0.724912567,273.370557 L0.0271193,273.499224 L0.0271193,272.964568 L0.00555609143,272.952022 L0.0271193,272.914674 L0.0271193,87.8675666 L0.409706898,87.8448616 L153.231429,0.0701180098 L153.257403,0 L315,92.9659264 L314.787959,93.3318769 L314.787959,278.588042 L314.485531,278.462746 Z M274.753441,96.8003212 L153.480366,27.0340335 L40.7117915,91.9078298 L161.884726,161.731727 L274.753441,96.8003212 Z M146.27585,330.413676 L146.27585,179.747607 L23.3990137,109.058704 L23.3990137,259.470702 L146.27585,330.413676 Z" id="Combined-Shape" fill-opacity="0.793817935" fill="#2988BF"></path>
                </g>
                <text id="Agrios" font-family="Montserrat-Medium, Montserrat" font-size="144" font-weight="400" fill="#202020">
                    <tspan x="0" y="507">Agrios</tspan>
                </text>
            </g>
        </g>
    </g>
</svg>